<?xml version="1.0" encoding="UTF-8"?>
<svg id="Capa_1" data-name="Capa 1" xmlns="http://www.w3.org/2000/svg" viewBox="0 0 192 192">
  <defs>
    <style>
      .cls-1 {
        fill: #3b3b3b;
      }
    </style>
  </defs>
  <g id="Capa_1-2" data-name="Capa 1-2">
    <path class="cls-1" d="M79.31,64.87l1.21,20.51c.08,1.31-1,2.43-2.36,2.43h-.46c-.91,0-1.75-.52-2.14-1.31-7.16-14.56-10.04-19.65-16-19.65h0c-1.32,0-2.37,1.04-2.37,2.31v50.77c0,4.34,1.08,5.14,5.8,5.73,1.16.15,2.03,1.12,2.03,2.27h0c0,1.26-1.06,2.3-2.36,2.3H30.02c-1.3,0-2.36-1.02-2.36-2.3h0c0-1.14.87-2.11,2.03-2.27,4.71-.6,5.8-1.4,5.8-5.73v-50.77c0-1.27-1.07-2.31-2.37-2.31h0c-5.97,0-8.85,5.09-16,19.65-.39.8-1.23,1.31-2.14,1.31h-.46c-1.36.01-2.44-1.1-2.36-2.41l1.17-20.53c.08-1.21,1.11-2.16,2.36-2.16h61.25c1.25,0,2.29.95,2.36,2.16Z"/>
    <path class="cls-1" d="M141.68,91.05l-13.5,37.68c-.31.87-1.16,1.47-2.13,1.47h-5.54c-.95,0-1.8-.59-2.11-1.46l-13.9-37.96c-.78-2.15-4.03-1.82-4.34.44l-3.62,26.08c-.1.77-.2,2.02-.2,2.41,0,4.18,1.46,5.44,7.56,6,1.16.1,2.06,1.04,2.06,2.17v.12c0,1.2-1,2.17-2.24,2.17h-20.78c-1.24,0-2.24-.97-2.24-2.17v-.17c0-1.1.86-2,1.98-2.12,4.25-.5,5.92-1.92,6.44-5.7l6.32-45.79c.01-.11.03-.22.03-.34-.04-4.4-1.47-6.16-6.39-6.69-1.15-.12-2.03-1.05-2.03-2.16v-.12c0-1.2,1-2.17,2.24-2.17h25.74c1.1,0,2.01.76,2.2,1.8.29,1.51.76,2.94,1.33,4.54l10.03,28.23c.7,1.97,3.57,1.96,4.25-.02l9.7-28.3c.57-1.76,1.11-3.09,1.42-4.55.22-1,1.13-1.7,2.19-1.7h25.17c1.24,0,2.24.97,2.24,2.17v.12c0,1.12-.89,2.03-2.03,2.16-4.92.55-6.35,2.3-6.39,6.69,0,.11,0,.22.03.34l6.32,45.79c.61,4.12,2.27,5.3,6.45,5.71,1.12.11,1.97,1.06,1.97,2.16v.12c0,1.2-1,2.17-2.24,2.17h-35.35c-1.24,0-2.24-.97-2.24-2.17v-.12c0-1.12.9-2.06,2.06-2.16,5.55-.52,7.55-1.87,7.55-6.01,0-.37-.1-1.63-.2-2.41l-3.44-25.83c-.3-2.28-3.57-2.61-4.34-.42h-.03Z"/>
  </g>
</svg>