<?xml version="1.0" encoding="UTF-8"?>
<svg id="Capa_2" data-name="Capa 2" xmlns="http://www.w3.org/2000/svg" viewBox="0 0 128.64 54.11">
  <defs>
    <style>
      .cls-1 {
        fill: #3b3b3b;
      }
    </style>
  </defs>
  <g id="Capa_1-2" data-name="Capa 1">
    <path class="cls-1" d="M51.49,1.73l.93,16.44c.06,1.05-.77,1.95-1.81,1.95h-.35c-.7,0-1.34-.42-1.64-1.05-5.49-11.67-7.7-15.75-12.27-15.75h0c-1.01,0-1.82.83-1.82,1.85v40.7c0,3.48.83,4.12,4.45,4.59.89.12,1.56.9,1.56,1.82h0c0,1.01-.81,1.84-1.81,1.84H13.69c-1,0-1.81-.82-1.81-1.84h0c0-.91.67-1.69,1.56-1.82,3.61-.48,4.45-1.12,4.45-4.59V5.17c0-1.02-.82-1.85-1.82-1.85h0c-4.58,0-6.79,4.08-12.27,15.75-.3.64-.94,1.05-1.64,1.05h-.35C.77,20.13-.06,19.24,0,18.19L.9,1.73C.96.76,1.75,0,2.71,0h46.97C50.64,0,51.44.76,51.49,1.73Z"/>
    <path class="cls-1" d="M99.32,22.72l-10.35,30.21c-.24.7-.89,1.18-1.63,1.18h-4.25c-.73,0-1.38-.47-1.62-1.17l-10.66-30.43c-.6-1.72-3.09-1.46-3.33.35l-2.78,20.91c-.08.62-.15,1.62-.15,1.93,0,3.35,1.12,4.36,5.8,4.81.89.08,1.58.83,1.58,1.74v.1c0,.96-.77,1.74-1.72,1.74h-15.94c-.95,0-1.72-.78-1.72-1.74v-.14c0-.88.66-1.6,1.52-1.7,3.26-.4,4.54-1.54,4.94-4.57l4.85-36.71c.01-.09.02-.18.02-.27-.03-3.53-1.13-4.94-4.9-5.36-.88-.1-1.56-.84-1.56-1.73v-.1c0-.96.77-1.74,1.72-1.74h19.74c.84,0,1.54.61,1.69,1.44.22,1.21.58,2.36,1.02,3.64l7.69,22.63c.54,1.58,2.74,1.57,3.26-.02l7.44-22.69c.44-1.41.85-2.48,1.09-3.65.17-.8.87-1.36,1.68-1.36h19.3c.95,0,1.72.78,1.72,1.74v.1c0,.9-.68,1.63-1.56,1.73-3.77.44-4.87,1.84-4.9,5.36,0,.09,0,.18.02.27l4.85,36.71c.47,3.3,1.74,4.25,4.95,4.58.86.09,1.51.85,1.51,1.73v.1c0,.96-.77,1.74-1.72,1.74h-27.11c-.95,0-1.72-.78-1.72-1.74v-.1c0-.9.69-1.65,1.58-1.73,4.26-.42,5.79-1.5,5.79-4.82,0-.3-.08-1.31-.15-1.93l-2.64-20.71c-.23-1.83-2.74-2.09-3.33-.34h-.02Z"/>
  </g>
</svg>