<?xml version="1.0" encoding="UTF-8"?>
<svg id="Capa_2" xmlns="http://www.w3.org/2000/svg" viewBox="0 0 503.34 124.6">
  <defs>
    <style>
      .cls-1 {
        fill: #3b3b3b;
      }
    </style>
  </defs>
  <g id="Capa_1-2" data-name="Capa_1">
    <g>
      <path class="cls-1" d="M51.49,1.73l.93,16.44c.06,1.05-.77,1.95-1.81,1.95h-.35c-.7,0-1.34-.42-1.64-1.05-5.49-11.67-7.7-15.75-12.27-15.75h0c-1.01,0-1.82.83-1.82,1.85v40.7c0,3.48.83,4.12,4.45,4.59.89.12,1.56.9,1.56,1.82h0c0,1.01-.81,1.84-1.81,1.84H13.69c-1,0-1.81-.82-1.81-1.84h0c0-.91.67-1.69,1.56-1.82,3.61-.48,4.45-1.12,4.45-4.59V5.17c0-1.02-.82-1.85-1.82-1.85h0c-4.58,0-6.79,4.08-12.27,15.75-.3.64-.94,1.05-1.64,1.05h-.35C.77,20.13-.06,19.24,0,18.19L.9,1.73C.96.76,1.75,0,2.71,0h46.97C50.64,0,51.44.76,51.49,1.73Z"/>
      <path class="cls-1" d="M90.76,28.35v1.9h-24.09c0,8.36,4.71,13.68,11.4,13.68,4.79,0,8.44-1.6,11.32-5.32l1.6.99c-2.13,8.82-8.13,14.52-18.09,14.52-11.32,0-20.37-7.22-20.37-20.52s9.8-22.27,21.05-22.27,17.18,7.07,17.18,17.02h0ZM66.74,26.53h10.72c0-7.52-1.22-11.86-4.86-11.86s-5.55,4.71-5.85,11.86h-.01Z"/>
      <path class="cls-1" d="M113.48,46.62c0,3.4,1.67,3.63,5.93,4.26v3.25h-25.61v-3.25c2.81-.23,4.03-.47,4.03-2.79v-27.08l-4.03-2.63v-2.4l16.95-4.64h3.04l-.3,12.07c2.89-9.28,5.7-12.07,10.56-12.07,1.9,0,3.19.54,4.03,1.31v11.84h-1.98c-4.86,0-9.35.15-12.62,2.17,0,0,0,19.96,0,19.96Z"/>
      <path class="cls-1" d="M168.2,28.35v1.9h-24.09c0,8.36,4.71,13.68,11.4,13.68,4.79,0,8.44-1.6,11.32-5.32l1.6.99c-2.13,8.82-8.13,14.52-18.09,14.52-11.32,0-20.37-7.22-20.37-20.52s9.8-22.27,21.05-22.27,17.18,7.07,17.18,17.02h0ZM144.19,26.53h10.72c0-7.52-1.22-11.86-4.86-11.86s-5.55,4.71-5.85,11.86h0Z"/>
      <path class="cls-1" d="M172.99,50.24l-.46-10.26h3.88c1.37,6.08,5.47,10.72,11.32,10.72,3.42,0,6.16-1.6,6.16-4.79,0-3.72-2.96-4.86-7.83-6.31-8.82-2.58-13.6-6.38-13.6-14.36,0-9.04,6.84-13.91,16.34-13.91,5.24,0,10.11,1.37,13.38,3.5v9.12h-3.57c-.76-4.79-4.18-9.2-9.42-9.2-3.04,0-5.17,1.6-5.17,4.33,0,3.04,2.2,4.18,6.84,5.7,9.5,3.12,14.59,6.23,14.59,14.97,0,9.2-6.92,14.36-17.56,14.36-6.61,0-11.48-1.52-14.9-3.88h0Z"/>
      <path class="cls-1" d="M245.87,45c0,1.52.15,3.12,1.9,3.12.99,0,1.98-.23,2.36-.38l.53,2.28c-2.66,2.43-6,4.1-10.56,4.1s-7.98-2.28-9.35-6.31c-2.13,3.27-5.62,6-11.25,6-6.54,0-11.17-3.57-11.17-10.34s4.56-9.42,9.88-11.25l12.31-4.26v-8.36c0-3.04-.76-5.09-3.27-5.09-2.66,0-3.65,2.36-3.65,5.85,0,1.82.3,3.72.76,5.62l-9.42,1.22c-2.28-.76-3.95-2.66-3.95-5.55,0-7.22,7.45-10.34,16.95-10.34,11.1,0,17.94,3.27,17.94,13.53v20.16ZM230.52,45.53v-14.06l-3.04,1.14c-2.43.91-4.1,2.13-4.1,6.61,0,3.8,1.29,6.69,4.94,6.69.84,0,1.44-.15,2.2-.38Z"/>
      <path class="cls-1" d="M309.82,22.72l-10.35,30.21c-.24.7-.89,1.18-1.63,1.18h-4.25c-.73,0-1.38-.47-1.62-1.17l-10.66-30.43c-.6-1.72-3.09-1.46-3.33.35l-2.78,20.91c-.08.62-.15,1.62-.15,1.93,0,3.35,1.12,4.36,5.8,4.81.89.08,1.58.83,1.58,1.74v.1c0,.96-.77,1.74-1.72,1.74h-15.94c-.95,0-1.72-.78-1.72-1.74v-.14c0-.88.66-1.6,1.52-1.7,3.26-.4,4.54-1.54,4.94-4.57l4.85-36.71c.01-.09.02-.18.02-.27-.03-3.53-1.13-4.94-4.9-5.36-.88-.1-1.56-.84-1.56-1.73v-.1c0-.96.77-1.74,1.72-1.74h19.74c.84,0,1.54.61,1.69,1.44.22,1.21.58,2.36,1.02,3.64l7.69,22.63c.54,1.58,2.74,1.57,3.26-.02l7.44-22.69c.44-1.41.85-2.48,1.09-3.65.17-.8.87-1.36,1.68-1.36h19.3c.95,0,1.72.78,1.72,1.74v.1c0,.9-.68,1.63-1.56,1.73-3.77.44-4.87,1.84-4.9,5.36,0,.09,0,.18.02.27l4.85,36.71c.47,3.3,1.74,4.25,4.95,4.58.86.09,1.51.85,1.51,1.73v.1c0,.96-.77,1.74-1.72,1.74h-27.11c-.95,0-1.72-.78-1.72-1.74v-.1c0-.9.69-1.65,1.58-1.73,4.26-.42,5.79-1.5,5.79-4.82,0-.3-.08-1.31-.15-1.93l-2.64-20.71c-.23-1.83-2.74-2.09-3.33-.34h-.02Z"/>
      <path class="cls-1" d="M339.88,33.45c0-12.69,9.04-22.12,22.04-22.12s22.04,7.98,22.04,20.67-9.04,22.12-22.04,22.12-22.04-7.98-22.04-20.67ZM367.32,35.65c0-13-1.44-18.97-5.78-18.97-4.03,0-5.02,3.61-5.02,13.11,0,13,1.44,19.23,5.78,19.23,4.03,0,5.02-3.87,5.02-13.37Z"/>
      <path class="cls-1" d="M406.53,48.15c0,2.29,1.22,2.52,4.03,2.75v3.21h-23.71v-3.21c2.81-.23,4.03-.46,4.03-2.75V8.09l-4.03-2.06v-2.59L403.87,0h2.66v48.16h0Z"/>
      <path class="cls-1" d="M451.53,28.45v.76c0,.63-.51,1.14-1.14,1.14h-21.79c-.66,0-1.17.56-1.14,1.22.44,7.62,5.01,12.41,11.37,12.41,4.45,0,7.91-1.37,10.69-4.53.37-.43.99-.54,1.47-.24l.04.02c.42.26.64.78.5,1.25-2.3,8.32-8.23,13.64-17.88,13.64-11.32,0-20.37-7.19-20.37-20.44s9.8-22.18,21.05-22.18,17.18,7.04,17.18,16.95h.02ZM428.71,26.64h8.37c.63,0,1.15-.52,1.14-1.15-.12-6.79-1.4-10.67-4.85-10.67s-5.34,4.16-5.78,10.59c-.05.66.47,1.23,1.13,1.23h-.01ZM431.33,9.71h-.18c-.76,0-1.3-.72-1.09-1.44l2.92-7.45C433.12.33,433.57,0,434.07,0h11.11c1.05,0,1.54,1.29.75,1.98l-9.71,5.89c-1.41.98-3.09,1.84-4.9,1.84h0Z"/>
      <path class="cls-1" d="M456.31,50.24l-.46-10.26h3.88c1.37,6.08,5.47,10.72,11.33,10.72,3.42,0,6.16-1.6,6.16-4.79,0-3.72-2.96-4.86-7.83-6.31-8.82-2.58-13.6-6.38-13.6-14.36,0-9.04,6.84-13.91,16.34-13.91,5.24,0,10.11,1.37,13.38,3.5v9.12h-3.57c-.76-4.79-4.18-9.2-9.42-9.2-3.04,0-5.17,1.6-5.17,4.33,0,3.04,2.2,4.18,6.84,5.7,9.5,3.12,14.59,6.23,14.59,14.97,0,9.2-6.92,14.36-17.56,14.36-6.61,0-11.48-1.52-14.9-3.88h0Z"/>
    </g>
    <g>
      <path class="cls-1" d="M99.6,95.42h1.79c-3.65,4.35-4.9,9.66-4.9,14.59s1.25,10.24,4.9,14.59h-1.79c-4.67-3.68-7.46-9.12-7.46-14.59s2.78-10.91,7.46-14.59Z"/>
      <path class="cls-1" d="M121.23,120.37c-1.58,0-3.02-.28-4.34-.83-1.31-.55-2.45-1.34-3.42-2.37s-1.72-2.24-2.24-3.65c-.52-1.41-.78-2.95-.78-4.64s.28-3.13.83-4.53c.55-1.4,1.33-2.61,2.32-3.65.99-1.03,2.15-1.84,3.47-2.42,1.32-.58,2.77-.86,4.35-.86,1.09,0,2.14.16,3.17.48s1.96.77,2.8,1.34c.84.58,1.55,1.24,2.13,1.98l-1.73,1.76c-.92-.98-1.92-1.73-2.99-2.26-1.08-.52-2.2-.78-3.38-.78s-2.3.22-3.33.67c-1.02.45-1.91,1.07-2.67,1.86-.76.79-1.35,1.73-1.78,2.83-.43,1.1-.64,2.29-.64,3.57,0,1.34.21,2.57.64,3.66.43,1.1,1.02,2.04,1.78,2.82.76.78,1.66,1.38,2.7,1.81,1.04.43,2.21.64,3.49.64.79,0,1.56-.1,2.3-.3.75-.2,1.44-.5,2.08-.88.64-.38,1.23-.83,1.76-1.34l1.31,2.08c-.53.58-1.22,1.09-2.05,1.55-.83.46-1.74.82-2.74,1.07-.99.26-2.01.38-3.06.38Z"/>
      <path class="cls-1" d="M133.91,120.05v-22.4h2.53v19.97h10.75v2.43h-13.28Z"/>
      <path class="cls-1" d="M151.19,120.05v-2.37h3.81v-17.66h-3.81v-2.37h10.18v2.37h-3.84v17.66h3.84v2.37h-10.18ZM154.26,95.8l-.7-1.28,5.5-3.39,1.15,2.14-5.95,2.53Z"/>
      <path class="cls-1" d="M166.67,120.05v-22.4h2.3l14.18,19.36-.38.19c-.11-.68-.19-1.48-.26-2.38s-.11-1.97-.14-3.18c-.03-1.22-.05-2.6-.05-4.16v-9.82h2.53v22.4h-2.34l-14.14-19.1.38-.29c.11,1.15.19,2.17.24,3.04.05.88.1,1.63.14,2.26.04.63.06,1.17.06,1.63v12.46h-2.53Z"/>
      <path class="cls-1" d="M190.19,120.05v-2.37h3.81v-17.66h-3.81v-2.37h10.18v2.37h-3.84v17.66h3.84v2.37h-10.18Z"/>
      <path class="cls-1" d="M214.35,120.37c-1.58,0-3.02-.28-4.34-.83-1.31-.55-2.45-1.34-3.42-2.37s-1.72-2.24-2.24-3.65c-.52-1.41-.78-2.95-.78-4.64s.28-3.13.83-4.53c.55-1.4,1.33-2.61,2.32-3.65.99-1.03,2.15-1.84,3.47-2.42,1.32-.58,2.77-.86,4.35-.86,1.09,0,2.14.16,3.17.48s1.96.77,2.8,1.34c.84.58,1.55,1.24,2.13,1.98l-1.73,1.76c-.92-.98-1.92-1.73-2.99-2.26-1.08-.52-2.2-.78-3.38-.78s-2.3.22-3.33.67c-1.02.45-1.91,1.07-2.67,1.86-.76.79-1.35,1.73-1.78,2.83-.43,1.1-.64,2.29-.64,3.57,0,1.34.21,2.57.64,3.66.43,1.1,1.02,2.04,1.78,2.82.76.78,1.66,1.38,2.7,1.81,1.04.43,2.21.64,3.49.64.79,0,1.56-.1,2.3-.3.75-.2,1.44-.5,2.08-.88.64-.38,1.23-.83,1.76-1.34l1.31,2.08c-.53.58-1.22,1.09-2.05,1.55-.83.46-1.74.82-2.74,1.07-.99.26-2.01.38-3.06.38Z"/>
      <path class="cls-1" d="M224.5,120.05l8.64-22.4h2.72l8.61,22.4h-2.72l-5.47-14.4c-.06-.15-.18-.48-.35-1.01-.17-.52-.37-1.11-.61-1.78-.23-.66-.46-1.3-.67-1.9-.21-.61-.38-1.07-.51-1.39h.61c-.13.36-.29.83-.48,1.41-.19.58-.4,1.17-.62,1.79-.22.62-.43,1.19-.62,1.73s-.34.96-.45,1.28l-5.44,14.27h-2.62ZM228.14,113.88l.93-2.46h10.59l1.06,2.46h-12.58Z"/>
      <path class="cls-1" d="M257.42,120.05v-22.4h8.48c1.51,0,2.91.27,4.19.82,1.28.54,2.39,1.31,3.33,2.3.94.99,1.66,2.17,2.18,3.54.51,1.37.77,2.88.77,4.54s-.26,3.15-.77,4.53c-.51,1.38-1.23,2.56-2.16,3.55-.93.99-2.04,1.76-3.33,2.3-1.29.54-2.69.82-4.21.82h-8.48ZM259.95,117.94l-.16-.32h5.95c1.17,0,2.26-.21,3.25-.64s1.84-1.02,2.56-1.78c.71-.76,1.26-1.68,1.65-2.77.38-1.09.58-2.28.58-3.58s-.19-2.49-.58-3.57c-.38-1.08-.94-2-1.66-2.77-.73-.77-1.58-1.36-2.56-1.79-.98-.43-2.06-.64-3.23-.64h-6.02l.22-.29v18.14Z"/>
      <path class="cls-1" d="M281.23,120.05v-22.4h13.57v2.43h-11.04v17.54h10.98v2.43h-13.5ZM282.42,109.75v-2.43h10.59v2.43h-10.59Z"/>
      <path class="cls-1" d="M300.37,120.05v-22.4h2.3l14.18,19.36-.38.19c-.11-.68-.19-1.48-.26-2.38-.06-.91-.11-1.97-.14-3.18s-.05-2.6-.05-4.16v-9.82h2.53v22.4h-2.34l-14.14-19.1.38-.29c.11,1.15.19,2.17.24,3.04.05.88.1,1.63.14,2.26.04.63.06,1.17.06,1.63v12.46h-2.53Z"/>
      <path class="cls-1" d="M329.23,120.05v-19.97h-6.46v-2.43h15.58v2.43h-6.59v19.97h-2.53Z"/>
      <path class="cls-1" d="M338.42,120.05l8.64-22.4h2.72l8.61,22.4h-2.72l-5.47-14.4c-.06-.15-.18-.48-.35-1.01-.17-.52-.37-1.11-.61-1.78-.23-.66-.46-1.3-.67-1.9-.21-.61-.38-1.07-.51-1.39h.61c-.13.36-.29.83-.48,1.41-.19.58-.4,1.17-.62,1.79s-.43,1.19-.62,1.73-.34.96-.45,1.28l-5.44,14.27h-2.62ZM342.06,113.88l.93-2.46h10.59l1.06,2.46h-12.58Z"/>
      <path class="cls-1" d="M362.38,120.05v-22.4h2.53v19.97h10.75v2.43h-13.28Z"/>
      <path class="cls-1" d="M389.01,124.6h-1.76c3.62-4.35,4.9-9.66,4.9-14.59s-1.28-10.24-4.9-14.59h1.76c4.7,3.68,7.49,9.12,7.49,14.59s-2.78,10.91-7.49,14.59Z"/>
    </g>
    <path class="cls-1" d="M496.05,0c4.26,0,7.29,3.26,7.29,7.3s-3.04,7.26-7.29,7.26-7.26-3.26-7.26-7.26S491.82,0,496.05,0ZM496.05,13.57c3.62,0,6.21-2.91,6.21-6.27s-2.59-6.3-6.21-6.3-6.18,2.91-6.18,6.3,2.59,6.27,6.18,6.27ZM496.14,3.33c2.21,0,3.14,1.06,3.14,2.27,0,1.15-.86,1.82-1.7,2.08l1.41,1.92c.35.48.61.74,1.09.77v.58h-2.21c-.32-.19-.7-.61-.99-1.06l-1.31-2.02h-.22v1.7c0,.61.1.8.77.8v.58h-3.62v-.58c.74,0,.86-.19.86-.8v-4.83c0-.67-.13-.74-.86-.8v-.61h3.65ZM495.34,4.06v3.14h.29c.96,0,1.5-.61,1.5-1.6s-.54-1.54-1.5-1.54h-.29Z"/>
  </g>
</svg>